<svg width="40" height="40" viewBox="0 0 40 40" fill="none" xmlns="http://www.w3.org/2000/svg">
<g clip-path="url(#clip0)">
<path d="M38.8278 40H1.17187C0.524683 40 0 39.4753 0 38.8281C0 38.1809 0.524683 37.6562 1.17187 37.6562H38.8278C39.475 37.6562 39.9997 38.1809 39.9997 38.8281C39.9997 39.4753 39.475 40 38.8278 40Z" fill="white"/>
<path d="M8.28096 40H3.5935C2.94631 40 2.42163 39.4753 2.42163 38.8281V30.2344C2.42163 29.1575 3.2978 28.2813 4.37474 28.2813H7.49972C8.57666 28.2813 9.45283 29.1575 9.45283 30.2344V38.8281C9.45283 39.4753 8.92814 40 8.28096 40ZM4.76536 37.6563H7.10909V30.625H4.76536V37.6563ZM7.49972 30.625H7.5005H7.49972Z" fill="white"/>
<path d="M17.656 40H12.9685C12.3213 40 11.7966 39.4753 11.7966 38.8281V27.422C11.7966 26.345 12.6728 25.4689 13.7497 25.4689H16.8747C17.9517 25.4689 18.8278 26.345 18.8278 27.422V38.8281C18.8278 39.4753 18.3031 40 17.656 40ZM14.1404 37.6563H16.4841V27.8126H14.1404V37.6563ZM16.8747 27.8126H16.8755H16.8747Z" fill="white"/>
<path d="M27.031 40H22.3435C21.6963 40 21.1716 39.4753 21.1716 38.8281V23.1251C21.1716 22.0482 22.0478 21.172 23.1247 21.172H26.2497C27.3267 21.172 28.2028 22.0482 28.2028 23.1251V38.8281C28.2028 39.4753 27.6781 40 27.031 40ZM23.5154 37.6562H25.8591V23.5157H23.5154V37.6562ZM26.2497 23.5157H26.2505H26.2497Z" fill="white"/>
<path d="M36.4055 40.0001H31.7181C31.0709 40.0001 30.5462 39.4754 30.5462 38.8282V15.3127C30.5462 14.2358 31.4224 13.3596 32.4993 13.3596H35.6243C36.7012 13.3596 37.5774 14.2358 37.5774 15.3127V38.8282C37.5774 39.4754 37.0527 40.0001 36.4055 40.0001ZM32.8899 37.6564H35.2337V15.7034H32.8899V37.6564ZM35.6243 15.7034H35.6251H35.6243Z" fill="white"/>
<path d="M1.17187 25.18C0.524683 25.18 0 24.6554 0 24.0082C0 23.361 0.524683 22.8363 1.17187 22.8363C8.06291 22.8363 15.5658 20.3269 22.2983 15.7705C28.4921 11.5787 33.4276 6.08346 35.8391 0.69374C36.1035 0.102964 36.7967 -0.161722 37.3874 0.102729C37.9781 0.367024 38.2428 1.06022 37.9784 1.651C35.3936 7.42806 30.1572 13.2819 23.612 17.7115C16.4957 22.5276 8.52626 25.18 1.17187 25.18Z" fill="white"/>
<path d="M38.8272 9.50607C38.3097 9.50607 37.8362 9.16076 37.696 8.63717L36.0803 2.60745L30.0506 4.22314C29.4252 4.3908 28.7828 4.01971 28.6153 3.39456C28.4478 2.76941 28.8188 2.12683 29.4439 1.95933L36.6056 0.0403648C37.231 -0.127212 37.8733 0.243879 38.0408 0.868952L39.9598 8.03061C40.1273 8.65577 39.7564 9.29834 39.1312 9.46584C39.0296 9.49303 38.9275 9.50607 38.8272 9.50607V9.50607Z" fill="white"/>
</g>
<defs>
<clipPath id="clip0">
<rect width="40" height="40" fill="white"/>
</clipPath>
</defs>
</svg>
