<svg width="40" height="40" viewBox="0 0 40 40" fill="none" xmlns="http://www.w3.org/2000/svg">
<path d="M26.715 25.653C25.7673 25.653 24.9963 24.9857 24.9963 24.1654C24.9963 23.3451 25.7673 22.6778 26.715 22.6778C27.6628 22.6778 28.4338 23.3451 28.4338 24.1654C28.4338 24.5968 28.7836 24.9467 29.215 24.9467C29.6464 24.9467 29.9963 24.5968 29.9963 24.1654C29.9963 22.7338 28.9295 21.53 27.4963 21.2033V20.797C27.4963 20.3656 27.1464 20.0157 26.715 20.0157C26.2836 20.0157 25.9338 20.3656 25.9338 20.797V21.2033C24.5005 21.53 23.4338 22.7338 23.4338 24.1654C23.4338 25.8472 24.9057 27.2155 26.715 27.2155C27.6628 27.2155 28.4338 27.8828 28.4338 28.7032C28.4338 29.5235 27.6628 30.1908 26.715 30.1908C25.7673 30.1908 24.9963 29.5235 24.9963 28.7032C24.9963 28.2717 24.6464 27.9219 24.215 27.9219C23.7836 27.9219 23.4338 28.2717 23.4338 28.7032C23.4338 30.1348 24.5005 31.3385 25.9338 31.6653V32.0028C25.9338 32.4342 26.2836 32.784 26.715 32.784C27.1464 32.784 27.4963 32.4342 27.4963 32.0028V31.6653C28.9295 31.3385 29.9963 30.1348 29.9963 28.7032C29.9963 27.0213 28.5243 25.653 26.715 25.653Z" fill="white"/>
<path d="M35.2719 21.0059C34.2513 19.4157 32.8135 18.1432 31.1139 17.3261C30.7249 17.1391 30.2581 17.3029 30.0713 17.6918C29.8843 18.0807 30.048 18.5474 30.4369 18.7343C33.3987 20.1581 35.3124 23.2002 35.3124 26.4844C35.3124 27.8897 34.9659 29.2834 34.3107 30.515C34.1081 30.8958 34.2525 31.3689 34.6334 31.5716C34.7503 31.6338 34.8759 31.6633 34.9997 31.6633C35.2792 31.6633 35.5496 31.5128 35.6901 31.2489C36.4652 29.7923 36.8749 28.1447 36.8749 26.4844C36.8749 24.5344 36.3206 22.64 35.2719 21.0059Z" fill="white"/>
<path d="M27.9432 16.3283L27.8906 16.3282C27.4592 16.3282 27.1093 16.678 27.1093 17.1094C27.1093 17.5409 27.4592 17.8907 27.8906 17.8907L27.9358 17.8908C27.9371 17.8908 27.9382 17.8908 27.9396 17.8908C28.3693 17.8908 28.7187 17.5434 28.7207 17.1132C28.7227 16.6817 28.3746 16.3303 27.9432 16.3283Z" fill="white"/>
<path d="M23.0005 34.2345C20.0388 32.8107 18.1252 29.7686 18.1252 26.4844C18.1252 25.0791 18.4716 23.6854 19.1268 22.4539C19.3295 22.073 19.185 21.5999 18.8041 21.3972C18.4233 21.1946 17.95 21.339 17.7474 21.72C16.9724 23.1766 16.5627 24.8241 16.5627 26.4844C16.5627 28.4344 17.117 30.3288 18.1656 31.9629C19.1862 33.5532 20.624 34.8257 22.3236 35.6428C22.4327 35.6953 22.548 35.72 22.6616 35.72C22.9525 35.72 23.2317 35.5568 23.3662 35.2771C23.553 34.8882 23.3894 34.4214 23.0005 34.2345Z" fill="white"/>
<path d="M25.5469 35.0781L25.5017 35.0779C25.0683 35.0772 24.7189 35.424 24.7169 35.8555C24.7149 36.287 25.0632 36.6384 25.4946 36.6405L25.5469 36.6406C25.9783 36.6406 26.3282 36.2908 26.3282 35.8594C26.3282 35.4279 25.9783 35.0781 25.5469 35.0781Z" fill="white"/>
<path d="M30.2663 13.685C30.1712 13.4584 30.0547 13.2449 29.9192 13.0469H31.9531C33.9346 13.0469 35.5468 11.4347 35.5468 9.45311C35.5468 7.47155 33.9346 5.85936 31.9531 5.85936H25.6968C26.0946 5.28108 26.3281 4.58148 26.3281 3.82812C26.3281 1.84656 24.7159 0.234375 22.7343 0.234375H3.59374C1.61218 0.234375 0 1.84656 0 3.82812C0 5.80968 1.61218 7.42186 3.59374 7.42186H9.84998C9.45225 8.00014 9.21873 8.69975 9.21873 9.45311C9.21873 10.2065 9.45217 10.9061 9.84998 11.4844H7.81249C5.83093 11.4844 4.21874 13.0965 4.21874 15.0781C4.21874 16.2161 4.75108 17.2317 5.57929 17.8906C4.75108 18.5495 4.21874 19.565 4.21874 20.7031C4.21874 21.8411 4.75108 22.8567 5.57929 23.5156C4.75108 24.1745 4.21874 25.19 4.21874 26.3281C4.21874 27.4661 4.75108 28.4817 5.57929 29.1406C4.75108 29.7995 4.21874 30.815 4.21874 31.9531C4.21874 33.9346 5.83093 35.5468 7.81249 35.5468H17.0195C19.445 38.1411 22.8954 39.7656 26.7188 39.7656C34.042 39.7656 40 33.8077 40 26.4844C40 20.3893 35.8727 15.2408 30.2663 13.685ZM31.9531 7.42186C33.0731 7.42186 33.9843 8.33311 33.9843 9.45311C33.9843 10.5731 33.0731 11.4844 31.9531 11.4844H26.9531H12.8125C11.6924 11.4844 10.7812 10.5731 10.7812 9.45311C10.7812 8.33311 11.6924 7.42186 12.8125 7.42186H31.9531ZM3.59374 5.85936C2.47367 5.85936 1.5625 4.94812 1.5625 3.82812C1.5625 2.70812 2.47367 1.79687 3.59374 1.79687H22.7343C23.8544 1.79687 24.7656 2.70812 24.7656 3.82812C24.7656 4.94812 23.8544 5.85936 22.7343 5.85936H3.59374ZM7.81249 13.0469H26.9531C27.2678 13.0469 27.5691 13.12 27.8394 13.2509C27.4699 13.2199 27.0963 13.2032 26.7188 13.2032C23.0512 13.2032 19.7262 14.6976 17.3204 17.1093H7.81249C6.69249 17.1093 5.78124 16.1981 5.78124 15.0781C5.78124 13.9581 6.69249 13.0469 7.81249 13.0469ZM7.81249 18.6718H15.9855C15.0986 19.8869 14.4129 21.2574 13.9775 22.7343H7.81249C6.69241 22.7343 5.78124 21.8232 5.78124 20.7031C5.78124 19.5831 6.69241 18.6718 7.81249 18.6718ZM7.81249 24.2968H13.6187C13.5002 25.0088 13.4376 25.7393 13.4376 26.4844C13.4376 27.1208 13.4836 27.7466 13.5705 28.3593H7.81249C6.69241 28.3593 5.78124 27.4482 5.78124 26.3281C5.78124 25.208 6.69241 24.2968 7.81249 24.2968ZM7.81249 33.9843C6.69241 33.9843 5.78124 33.0731 5.78124 31.9531C5.78124 30.833 6.69241 29.9218 7.81249 29.9218H13.8895C14.2837 31.3916 14.9241 32.7613 15.764 33.9843H7.81249ZM26.7188 38.2031C20.2571 38.2031 15.0001 32.9461 15.0001 26.4844C15.0001 20.0227 20.2571 14.7657 26.7188 14.7657C33.1805 14.7657 38.4375 20.0227 38.4375 26.4844C38.4375 32.9461 33.1805 38.2031 26.7188 38.2031Z" fill="white"/>
</svg>
