<svg width="40" height="40" viewBox="0 0 40 40" fill="none" xmlns="http://www.w3.org/2000/svg">
<path d="M31.7134 5.24074H28.0946V3.62184C28.0946 3.09807 27.5233 2.86001 26.9995 2.86001H24.1902C23.5236 0.955393 21.8571 0.00308302 19.9525 0.00308302C18.0688 -0.0677319 16.3555 1.08727 15.7147 2.86001H12.953C12.4292 2.86001 11.9054 3.09807 11.9054 3.62184V5.24074H8.2866C6.1421 5.26362 4.38768 6.95534 4.28688 9.09756V36.3812C4.28688 38.4763 6.1915 39.9999 8.2866 39.9999H31.7134C33.8085 39.9999 35.7131 38.4763 35.7131 36.3812V9.09765C35.6123 6.95534 33.8579 5.26362 31.7134 5.24074ZM13.81 4.76463H16.4288C16.886 4.70886 17.2532 4.36107 17.3336 3.90756C17.6156 2.67956 18.6929 1.79806 19.9525 1.76489C21.2003 1.80271 22.2615 2.68694 22.5237 3.90756C22.6091 4.37675 23.0005 4.729 23.476 4.76463H26.1901V8.57387H13.81V4.76463ZM33.8085 36.3812C33.8085 37.4288 32.7609 38.0954 31.7134 38.0954H8.2866C7.23905 38.0954 6.1915 37.4288 6.1915 36.3812V9.09765C6.28865 8.00726 7.19202 7.16541 8.2866 7.14545H11.9054V9.57385C11.9557 10.1074 12.4177 10.5065 12.9529 10.4786H26.9994C27.5444 10.5084 28.021 10.1148 28.0945 9.57385V7.14536H31.7133C32.8078 7.16541 33.7112 8.00717 33.8084 9.09756V36.3812H33.8085Z" fill="white"/>
<path d="M16.3336 21.2872C15.9764 20.9107 15.3835 20.8895 15.0003 21.2396L11.9529 24.1441L10.6673 22.8108C10.3101 22.4343 9.7172 22.4132 9.33405 22.7633C8.96521 23.1497 8.96521 23.7577 9.33405 24.1441L11.2862 26.144C11.4552 26.3332 11.6993 26.4378 11.9528 26.4297C12.204 26.4261 12.4436 26.3234 12.6194 26.144L16.3334 22.6205C16.7016 22.2827 16.7262 21.7103 16.3884 21.3422C16.3711 21.323 16.3527 21.3047 16.3336 21.2872Z" fill="white"/>
<path d="M29.9987 23.3346H19.0472C18.5212 23.3346 18.0949 23.7609 18.0949 24.2869C18.0949 24.8129 18.5212 25.2392 19.0472 25.2392H29.9987C30.5247 25.2392 30.951 24.8129 30.951 24.2869C30.951 23.7609 30.5247 23.3346 29.9987 23.3346Z" fill="white"/>
<path d="M16.3336 13.6687C15.9764 13.2922 15.3835 13.271 15.0003 13.6211L11.9529 16.5257L10.6673 15.1924C10.3101 14.8159 9.7172 14.7946 9.33405 15.1448C8.96521 15.5312 8.96521 16.1392 9.33405 16.5257L11.2862 18.5255C11.4552 18.7147 11.6993 18.8193 11.9528 18.8112C12.204 18.8077 12.4436 18.705 12.6194 18.5255L16.3334 15.002C16.7016 14.6642 16.7262 14.0919 16.3884 13.7238C16.3711 13.7045 16.3527 13.6862 16.3336 13.6687Z" fill="white"/>
<path d="M29.9987 15.7161H19.0472C18.5212 15.7161 18.0949 16.1425 18.0949 16.6684C18.0949 17.1944 18.5212 17.6207 19.0472 17.6207H29.9987C30.5247 17.6207 30.951 17.1944 30.951 16.6684C30.951 16.1425 30.5247 15.7161 29.9987 15.7161Z" fill="white"/>
<path d="M16.3336 28.9056C15.9764 28.5291 15.3835 28.5079 15.0003 28.858L11.9529 31.7625L10.6673 30.4292C10.3101 30.0527 9.7172 30.0316 9.33405 30.3816C8.96521 30.7681 8.96521 31.3761 9.33405 31.7625L11.2862 33.7624C11.4552 33.9516 11.6993 34.0562 11.9528 34.0481C12.204 34.0445 12.4436 33.9418 12.6194 33.7624L16.3334 30.2388C16.7016 29.9011 16.7262 29.3287 16.3884 28.9606C16.3711 28.9415 16.3527 28.9232 16.3336 28.9056Z" fill="white"/>
<path d="M29.9987 30.9531H19.0472C18.5212 30.9531 18.0949 31.3794 18.0949 31.9054C18.0949 32.4314 18.5212 32.8577 19.0472 32.8577H29.9987C30.5247 32.8577 30.951 32.4314 30.951 31.9054C30.951 31.3794 30.5247 30.9531 29.9987 30.9531Z" fill="white"/>
</svg>
