<svg width="40" height="40" viewBox="0 0 40 40" fill="none" xmlns="http://www.w3.org/2000/svg">
<g clip-path="url(#clip0)">
<path d="M24.5001 13.3574H18.1371C17.8135 13.3574 17.5511 13.0952 17.5511 12.7715C17.5511 12.4478 17.8135 12.1855 18.1371 12.1855H24.5001C24.8237 12.1855 25.086 12.4478 25.086 12.7715C25.086 13.0952 24.8238 13.3574 24.5001 13.3574Z" fill="white"/>
<path d="M30.8632 10.3499H18.1371C17.8135 10.3499 17.5511 10.0876 17.5511 9.76392C17.5511 9.44024 17.8135 9.17798 18.1371 9.17798H30.8632C31.1868 9.17798 31.4491 9.44024 31.4491 9.76392C31.4491 10.0876 31.1868 10.3499 30.8632 10.3499Z" fill="white"/>
<path d="M24.5001 23.1767H18.1371C17.8135 23.1767 17.5511 22.9144 17.5511 22.5908C17.5511 22.2671 17.8135 22.0048 18.1371 22.0048H24.5001C24.8237 22.0048 25.086 22.2671 25.086 22.5908C25.086 22.9144 24.8238 23.1767 24.5001 23.1767Z" fill="white"/>
<path d="M30.8632 20.1691H18.1371C17.8135 20.1691 17.5511 19.9068 17.5511 19.5831C17.5511 19.2595 17.8135 18.9972 18.1371 18.9972H30.8632C31.1868 18.9972 31.4491 19.2595 31.4491 19.5831C31.4491 19.9068 31.1868 20.1691 30.8632 20.1691Z" fill="white"/>
<path d="M24.5001 32.996H18.1371C17.8135 32.996 17.5511 32.7337 17.5511 32.41C17.5511 32.0864 17.8135 31.8241 18.1371 31.8241H24.5001C24.8237 31.8241 25.086 32.0864 25.086 32.41C25.086 32.7337 24.8238 32.996 24.5001 32.996Z" fill="white"/>
<path d="M30.8632 29.9883H18.1371C17.8135 29.9883 17.5511 29.7261 17.5511 29.4024C17.5511 29.0787 17.8135 28.8165 18.1371 28.8165H30.8632C31.1868 28.8165 31.4491 29.0787 31.4491 29.4024C31.4491 29.7261 31.1868 29.9883 30.8632 29.9883Z" fill="white"/>
<path d="M25.0665 5.51961H14.9334C13.9703 5.51961 13.1867 4.73609 13.1867 3.77297V1.74672C13.1868 0.783594 13.9703 0 14.9334 0H25.0665C26.0296 0 26.8132 0.783594 26.8132 1.74672V3.77297C26.8132 4.73609 26.0297 5.51961 25.0665 5.51961ZM14.9334 1.17188C14.6164 1.17188 14.3586 1.42977 14.3586 1.74672V3.77297C14.3586 4.08992 14.6164 4.34773 14.9334 4.34773H25.0665C25.3834 4.34773 25.6413 4.08984 25.6413 3.77297V1.74672C25.6413 1.42969 25.3834 1.17188 25.0665 1.17188H14.9334Z" fill="white"/>
<path d="M12.7277 14.1428H10.1235C9.25609 14.1428 8.55038 13.4371 8.55038 12.5697V9.96564C8.55038 9.09822 9.25609 8.39252 10.1235 8.39252H12.7277C13.5951 8.39252 14.3008 9.09822 14.3008 9.96564V12.5698C14.3008 13.4371 13.5951 14.1428 12.7277 14.1428ZM10.1235 9.56439C9.90226 9.56439 9.72226 9.74439 9.72226 9.96564V12.5698C9.72226 12.791 9.90226 12.971 10.1235 12.971H12.7277C12.9489 12.971 13.1289 12.791 13.1289 12.5698V9.96564C13.1289 9.74439 12.9489 9.56439 12.7277 9.56439H10.1235Z" fill="white"/>
<path d="M12.7277 23.9621H10.1235C9.25609 23.9621 8.55038 23.2564 8.55038 22.389V19.7849C8.55038 18.9174 9.25609 18.2117 10.1235 18.2117H12.7277C13.5951 18.2117 14.3008 18.9174 14.3008 19.7849V22.389C14.3008 23.2564 13.5951 23.9621 12.7277 23.9621ZM10.1235 19.3836C9.90226 19.3836 9.72226 19.5636 9.72226 19.7849V22.389C9.72226 22.6102 9.90226 22.7902 10.1235 22.7902H12.7277C12.9489 22.7902 13.1289 22.6102 13.1289 22.389V19.7849C13.1289 19.5636 12.9489 19.3836 12.7277 19.3836H10.1235Z" fill="white"/>
<path d="M12.7277 33.7814H10.1235C9.25609 33.7814 8.55038 33.0757 8.55038 32.2082V29.6041C8.55038 28.7366 9.25609 28.0309 10.1235 28.0309H12.7277C13.5951 28.0309 14.3008 28.7366 14.3008 29.6041V32.2082C14.3008 33.0757 13.5951 33.7814 12.7277 33.7814ZM10.1235 29.2029C9.90226 29.2029 9.72226 29.383 9.72226 29.6042V32.2083C9.72226 32.4295 9.90226 32.6096 10.1235 32.6096H12.7277C12.9489 32.6096 13.1289 32.4295 13.1289 32.2083V29.6042C13.1289 29.383 12.9489 29.2029 12.7277 29.2029H10.1235Z" fill="white"/>
<path d="M32.4649 40H7.53506C6.13538 40 4.9967 38.8613 4.9967 37.4616V4.71217C4.9967 3.31256 6.13545 2.17389 7.53506 2.17389H11.0464C11.37 2.17389 11.6323 2.43615 11.6323 2.75983C11.6323 3.0835 11.37 3.34576 11.0464 3.34576H7.53506C6.78155 3.34576 6.16858 3.95873 6.16858 4.71217V37.4616C6.16858 38.2151 6.78163 38.828 7.53506 38.828H32.4649C33.2184 38.828 33.8314 38.215 33.8314 37.4616V4.71217C33.8314 3.95866 33.2183 3.34576 32.4649 3.34576H28.9536C28.63 3.34576 28.3676 3.0835 28.3676 2.75983C28.3676 2.43615 28.63 2.17389 28.9536 2.17389H32.4649C33.8646 2.17389 35.0033 3.31256 35.0033 4.71217V37.4616C35.0033 38.8613 33.8645 40 32.4649 40Z" fill="white"/>
</g>
<defs>
<clipPath id="clip0">
<rect width="40" height="40" fill="white"/>
</clipPath>
</defs>
</svg>
