<svg width="40" height="40" viewBox="0 0 40 40" fill="none" xmlns="http://www.w3.org/2000/svg">
<path d="M21.8667 40H18.1333C16.8717 40 15.8067 39.055 15.6567 37.8L15.2583 34.6733C14.4633 34.415 13.6967 34.0967 12.9683 33.725L10.4783 35.66C9.46833 36.4417 8.04667 36.3517 7.17 35.45L4.545 32.825C3.65 31.9567 3.56 30.535 4.34167 29.5267L6.27667 27.035C5.90333 26.3067 5.585 25.54 5.32833 24.745L2.195 24.3467C0.945 24.1933 0 23.1283 0 21.8667V18.1333C0 16.8717 0.945 15.8067 2.2 15.6567L5.32667 15.2583C5.585 14.4633 5.90333 13.6967 6.275 12.9683L4.34167 10.4783C3.55833 9.46833 3.65 8.045 4.55333 7.16833L7.17833 4.54333C8.04667 3.64833 9.47 3.56 10.4767 4.34L12.9667 6.27667C13.695 5.905 14.4617 5.58667 15.2583 5.32833L15.6567 2.195C15.8067 0.945 16.8717 0 18.1333 0H21.8667C23.1283 0 24.1933 0.945 24.3433 2.2L24.7417 5.32667C25.5383 5.585 26.305 5.90333 27.0333 6.275L29.5233 4.34C30.535 3.55833 31.955 3.64833 32.8317 4.55167L35.4567 7.17667C36.3517 8.045 36.4417 9.46667 35.66 10.475L33.725 12.9667C34.0983 13.695 34.4167 14.4617 34.6733 15.2567L37.8067 15.655C39.055 15.8067 40 16.8717 40 18.1333V21.8667C40 23.1283 39.055 24.1933 37.8 24.3433L34.6733 24.7417C34.415 25.5367 34.0967 26.3033 33.725 27.0317L35.66 29.5217C36.4433 30.5317 36.3517 31.9533 35.4483 32.83L32.8233 35.455C31.955 36.35 30.5317 36.4417 29.525 35.6583L27.0333 33.7233C26.305 34.0967 25.5383 34.415 24.7433 34.6717L24.345 37.805C24.1933 39.055 23.1283 40 21.8667 40V40ZM12.8833 31.9C13.0217 31.9 13.1633 31.935 13.29 32.005C14.2083 32.5183 15.2033 32.9317 16.2467 33.2317C16.5667 33.3233 16.8017 33.5967 16.8433 33.9267L17.31 37.5933C17.36 38.0117 17.7217 38.3333 18.1333 38.3333H21.8667C22.2783 38.3333 22.64 38.0117 22.6883 37.6017L23.1567 33.9283C23.1983 33.5983 23.4333 33.325 23.7533 33.2333C24.7967 32.9333 25.7917 32.52 26.71 32.0067C27.0017 31.8433 27.365 31.8717 27.6267 32.0767L30.5433 34.3433C30.8783 34.6033 31.3483 34.5817 31.635 34.2867L34.2767 31.645C34.5783 31.3517 34.6017 30.8817 34.3417 30.545L32.075 27.6283C31.87 27.365 31.8417 27.0033 32.005 26.7117C32.5183 25.7933 32.9317 24.7983 33.2317 23.755C33.3233 23.435 33.5967 23.2 33.9267 23.1583L37.5933 22.6917C38.0117 22.64 38.3333 22.2783 38.3333 21.8667V18.1333C38.3333 17.7217 38.0117 17.36 37.6017 17.3117L33.9283 16.8433C33.5983 16.8017 33.325 16.5667 33.2333 16.2467C32.9333 15.2033 32.52 14.2083 32.0067 13.29C31.8433 12.9983 31.87 12.6367 32.0767 12.3733L34.3433 9.45667C34.605 9.12 34.5817 8.65 34.2883 8.36667L31.6467 5.725C31.355 5.42167 30.8833 5.39833 30.5467 5.66L27.63 7.92667C27.365 8.13167 27.0033 8.16 26.7117 7.99667C25.7967 7.48333 24.8017 7.07167 23.755 6.77C23.435 6.67833 23.2 6.405 23.1583 6.075L22.6917 2.40833C22.64 1.98833 22.2783 1.66667 21.8667 1.66667H18.1333C17.7217 1.66667 17.36 1.98833 17.3117 2.39833L16.8433 6.07167C16.8017 6.40167 16.5667 6.675 16.2467 6.76833C15.2 7.06833 14.205 7.48167 13.29 7.99333C12.9983 8.15833 12.6367 8.12833 12.3717 7.925L9.455 5.65833C9.11833 5.39667 8.65 5.42 8.365 5.71333L5.72333 8.35667C5.42167 8.65 5.39833 9.12 5.65833 9.45667L7.925 12.3733C8.13 12.6367 8.15833 12.9983 7.995 13.29C7.48 14.2083 7.06833 15.2033 6.76833 16.2467C6.67667 16.5667 6.40333 16.8017 6.07333 16.8433L2.40667 17.31C1.98833 17.36 1.66667 17.7217 1.66667 18.1333V21.8667C1.66667 22.2783 1.98833 22.64 2.39833 22.6883L6.07167 23.1567C6.40167 23.1983 6.675 23.4333 6.76667 23.7533C7.06667 24.7967 7.48 25.7917 7.99333 26.71C8.15667 27.0017 8.13 27.3633 7.92333 27.6267L5.65667 30.5433C5.395 30.88 5.41833 31.35 5.71167 31.6333L8.35333 34.275C8.645 34.5767 9.11333 34.6 9.45333 34.34L12.37 32.0733C12.5217 31.96 12.7017 31.9 12.8833 31.9V31.9Z" fill="white"/>
<path d="M19.9998 28.3334C15.4048 28.3334 11.6665 24.595 11.6665 20C11.6665 15.405 15.4048 11.6667 19.9998 11.6667C24.5948 11.6667 28.3332 15.405 28.3332 20C28.3332 24.595 24.5948 28.3334 19.9998 28.3334ZM19.9998 13.3334C16.3232 13.3334 13.3332 16.3234 13.3332 20C13.3332 23.6767 16.3232 26.6667 19.9998 26.6667C23.6765 26.6667 26.6665 23.6767 26.6665 20C26.6665 16.3234 23.6765 13.3334 19.9998 13.3334Z" fill="white"/>
</svg>
